<svg preserveAspectRatio="none" width="100%" height="100%" overflow="visible" style="display: block;" viewBox="0 0 16.1772 17.3168" fill="none" xmlns="http://www.w3.org/2000/svg">
<g id="Group 2">
<path id="Vector" d="M0.628885 4.47656C0.0856256 5.56955 -0.111146 6.80191 0.0599598 8.01249C0.196844 8.68307 0.470612 9.32321 0.8556 9.88928C1.22776 10.4554 1.70685 10.9344 2.2715 11.2958C3.46068 11.9838 4.77391 12.4149 6.13421 12.5586C7.00253 12.7154 7.89658 12.6936 8.75639 12.4846C9.96271 12.0883 10.985 11.2566 11.6267 10.1419C12.2299 9.02274 12.5806 7.78166 12.6533 6.50576C12.6876 5.89181 12.7602 2.24702 9.21409 0.592279C5.27012 -1.2976 1.90362 1.69834 0.628885 4.47656Z" fill="var(--fill-0, #40CC9E)"/>
<path id="Vector_2" d="M9.00093 8.14342C9.00093 8.14342 4.93784 9.99079 3.30916 16.6667" stroke="var(--stroke-0, #102A43)" stroke-width="1.3" stroke-miterlimit="10" stroke-linecap="round"/>
<path id="Vector_3" d="M3.76381 14.451C3.76381 14.451 0.909299 10.6411 3.71777 7.1593C6.52625 3.67748 14.4049 3.00989 15.5272 3.00989C14.8538 3.79833 14.192 4.93208 13.9791 6.80824C13.7661 8.68439 13.6453 11.0958 12.0454 12.7762C9.90447 15.0207 7.68302 15.1991 6.33633 15.1991" stroke="var(--stroke-0, #102A43)" stroke-width="1.3" stroke-linecap="round" stroke-linejoin="round"/>
</g>
</svg>
