<svg preserveAspectRatio="none" width="100%" height="100%" overflow="visible" style="display: block;" viewBox="0 0 16.6667 16.6667" fill="none" xmlns="http://www.w3.org/2000/svg">
<path id="Vector" d="M12.1225 0.769376C6.95782 -1.69713 2.50182 2.2411 0.835009 5.88438C0.178212 7.32639 -0.202732 8.96602 0.112531 10.5321C0.486177 12.3151 1.48962 13.9169 3.0039 14.8775C4.51818 15.8381 6.30979 16.2971 8.08021 16.5387C9.22743 16.6946 10.4155 16.7549 11.5415 16.4443C13.1397 15.9933 14.4752 14.8099 15.3196 13.3626C16.1639 11.9155 16.5434 10.2297 16.6544 8.54182C16.7054 7.7454 16.8076 2.93351 12.1225 0.769376ZM12.1713 5.46092H9.55947L8.10576 13.2245H6.70313L8.15684 5.46092H5.54498L5.78726 4.13629H12.4282L12.1713 5.46092Z" fill="var(--fill-0, #EB6800)"/>
</svg>
