<svg preserveAspectRatio="none" width="100%" height="100%" overflow="visible" style="display: block;" viewBox="0 0 138.571 18.6967" fill="none" xmlns="http://www.w3.org/2000/svg">
<g id="logo">
<path id="Vector" d="M5.40807 18.6959H2.62655L5.49946 3.19394H0L0.476838 0.549664H14.297L13.7924 3.19394H8.28098L5.40807 18.6959Z" fill="var(--fill-0, #EB6800)"/>
<path id="Vector_2" d="M20.8555 6.29692C21.719 6.7855 22.4309 7.49752 22.9143 8.35601C23.399 9.20698 23.6508 10.1678 23.645 11.1439C23.6425 11.7863 23.539 12.4245 23.3382 13.0356H13.1573C13.1453 13.9565 13.4988 14.8455 14.1423 15.5128C14.4749 15.8317 14.8707 16.0794 15.3048 16.2404C15.739 16.4015 16.2021 16.4723 16.6653 16.4487C17.3613 16.4625 18.0488 16.2964 18.6595 15.9668C19.248 15.6423 19.7491 15.1835 20.1208 14.6287H22.9466C22.3284 15.8212 21.4164 16.8415 20.2944 17.5957C19.1445 18.3425 17.7913 18.726 16.415 18.6949C15.3563 18.7082 14.3121 18.4516 13.3833 17.9501C12.4881 17.4718 11.7436 16.7594 11.2317 15.8911C10.7023 14.9863 10.4317 13.9568 10.4486 12.9121C10.4476 11.6618 10.7596 10.4306 11.3568 9.32775C11.9573 8.19746 12.85 7.24393 13.9445 6.56382C15.0873 5.84785 16.4178 5.47808 17.7714 5.50039C18.8533 5.48758 19.9187 5.76274 20.8555 6.29692ZM14.9658 8.63079C14.25 9.22865 13.7255 10.0186 13.456 10.9049H21.0089C21.0074 10.4835 20.9206 10.0666 20.7535 9.67886C20.5865 9.29107 20.3425 8.9402 20.036 8.64674C19.7007 8.34747 19.3088 8.11635 18.8828 7.96669C18.4568 7.81703 18.005 7.75169 17.5534 7.77446C16.6149 7.74591 15.697 8.0497 14.9658 8.63079V8.63079Z" fill="var(--fill-0, #EB6800)"/>
<path id="Vector_3" d="M26.2807 17.5852C25.7945 17.2436 25.4004 16.7898 25.1328 16.2636C24.8652 15.7373 24.7323 15.1545 24.7456 14.5659H27.4119C27.4196 14.8275 27.4926 15.0832 27.6244 15.3103C27.7561 15.5375 27.9426 15.7292 28.1673 15.8684C28.7442 16.2523 29.4314 16.4423 30.1266 16.4101C30.7212 16.4491 31.3129 16.2999 31.8153 15.984C32.0081 15.8456 32.1629 15.6621 32.2658 15.45C32.3688 15.2379 32.4167 15.0039 32.4051 14.7691C32.4149 14.5547 32.3638 14.3419 32.2574 14.1547C32.151 13.9674 31.9937 13.8133 31.8032 13.7096C31.2079 13.3972 30.5755 13.159 29.9206 13.0005C29.2322 12.8149 28.5573 12.5833 27.9007 12.3074C27.3793 12.0712 26.9264 11.7096 26.5837 11.2558C26.192 10.7119 25.9971 10.054 26.0302 9.38769C26.0229 8.67318 26.248 7.97516 26.6726 7.39606C27.1227 6.78861 27.7275 6.30907 28.4259 6.00591C29.2125 5.66091 30.0657 5.48831 30.9265 5.50003C31.7835 5.48774 32.6324 5.66469 33.411 6.01787C34.1063 6.329 34.7006 6.8239 35.128 7.4478C35.538 8.05181 35.7522 8.76449 35.742 9.49126H33.1283C33.1291 9.25318 33.0728 9.01829 32.9639 8.80576C32.8551 8.59324 32.6968 8.40908 32.5021 8.26837C32.051 7.92828 31.494 7.75364 30.9265 7.77445C30.3768 7.75102 29.8325 7.8897 29.3631 8.17278C29.1835 8.27869 29.0348 8.42866 28.9315 8.60806C28.8281 8.78745 28.7736 8.99018 28.7733 9.1965C28.7631 9.40986 28.8142 9.62168 28.9207 9.8077C29.0272 9.99372 29.1847 10.1463 29.3752 10.248C29.9736 10.5497 30.6053 10.7823 31.2578 10.9411C31.9456 11.1288 32.6203 11.3603 33.2777 11.6342C33.8082 11.8686 34.2676 12.2352 34.6109 12.6978C35.0022 13.2568 35.1953 13.9275 35.1603 14.6058C35.164 15.3202 34.9608 16.0208 34.5745 16.6252C34.1433 17.2795 33.5344 17.8012 32.8172 18.1309C31.7654 18.5801 30.6174 18.7665 29.475 18.6733C28.3327 18.5802 27.2313 18.2106 26.2686 17.5972L26.2807 17.5852Z" fill="var(--fill-0, #EB6800)"/>
<path id="Vector_4" d="M42.0695 8.15027L40.936 14.1555C40.9098 14.3107 40.8926 14.4673 40.8843 14.6246C40.8731 14.837 40.908 15.0493 40.9865 15.2458C41.065 15.4424 41.185 15.6183 41.3377 15.7606C41.6883 16.0481 42.1277 16.1943 42.5745 16.1722H43.712L43.2188 18.6952H42.1092C40.8658 18.6952 39.9033 18.3825 39.222 17.7569C38.8803 17.435 38.6115 17.0389 38.4348 16.5971C38.2581 16.1552 38.1779 15.6785 38.1999 15.2008C38.1977 14.8497 38.231 14.4994 38.2993 14.1555L39.4367 8.15027H37.3925L37.8459 5.64364H39.8901L40.5463 2.19866H43.1711L42.5149 5.64364H45.6408L45.1874 8.15027H42.0695Z" fill="var(--fill-0, #EB6800)"/>
<path id="Vector_5" d="M57.085 6.42816C57.9639 6.93884 58.6869 7.67853 59.1766 8.56808C59.6836 9.47625 59.9456 10.5003 59.9371 11.5399C59.9289 12.7444 59.6098 13.9264 59.0107 14.972C58.3939 16.0843 57.4956 17.0157 56.4054 17.6732C55.256 18.3666 53.9333 18.7208 52.5905 18.6948C51.6665 18.6834 50.7609 18.4349 49.961 17.9731C49.1611 17.5113 48.4937 16.8518 48.0231 16.0581L47.5619 18.4364H45.6403L49.2327 2.10795e-08H51.1543L49.7182 7.40122C50.9105 6.25021 52.5095 5.61471 54.1682 5.63263C55.1945 5.63067 56.2023 5.90558 57.085 6.42816V6.42816ZM55.4223 16.1752C56.2022 15.6897 56.8366 15.0035 57.259 14.1887C57.6915 13.3728 57.9152 12.4629 57.9103 11.5399C57.9138 10.8348 57.7384 10.1403 57.4006 9.52103C57.063 8.89606 56.5662 8.371 55.9604 7.9988C55.3288 7.60966 54.5988 7.40931 53.8567 7.42143C52.9083 7.40865 51.9765 7.6709 51.1745 8.17643C50.3965 8.66518 49.7572 9.34507 49.3176 10.1509C48.8807 10.9293 48.6509 11.8064 48.6501 12.6987C48.6449 13.4243 48.8258 14.1391 49.1756 14.7752C49.5254 15.4113 50.0325 15.9475 50.6486 16.3327C51.2647 16.7162 51.9776 16.9166 52.7038 16.9101C53.662 16.9321 54.6061 16.6768 55.4223 16.1752V16.1752Z" fill="var(--fill-0, #102A43)"/>
<path id="Vector_6" d="M63.5666 12.9786V13.1506C63.5284 13.6607 63.6042 14.1728 63.7888 14.6518C63.9735 15.1308 64.2626 15.5654 64.6364 15.926C65.0101 16.2865 65.4598 16.5644 65.9545 16.7407C66.4492 16.9169 66.9773 16.9874 67.5027 16.9471C68.2789 16.9599 69.0452 16.7766 69.7265 16.4154C70.4204 16.0188 71.0214 15.4862 71.4911 14.8514H73.5458C72.8836 15.9928 71.9669 16.976 70.8627 17.7291C69.8034 18.3866 68.5663 18.7229 67.3093 18.6949C66.2851 18.7107 65.2738 18.4711 64.3723 17.9989C63.5134 17.5481 62.8038 16.8702 62.3257 16.0439C61.8243 15.164 61.5701 14.1716 61.5885 13.1662C61.5881 11.9732 61.8897 10.7985 62.4667 9.74508C63.0472 8.66241 63.9062 7.74389 64.9605 7.0786C66.0617 6.38577 67.3508 6.02767 68.6629 6.05025C69.6905 6.03008 70.7052 6.27427 71.6039 6.75797C72.4281 7.20185 73.1056 7.86341 73.5579 8.66594C74.0092 9.46775 74.2421 10.3681 74.2347 11.2817C74.2375 11.8616 74.1519 12.4386 73.9809 12.9942L63.5666 12.9786ZM65.4601 8.75195C64.6641 9.42033 64.0941 10.306 63.8244 11.2934H72.2566C72.2641 10.8218 72.1713 10.3539 71.9842 9.91862C71.797 9.48338 71.5195 9.09022 71.1688 8.76369C70.7977 8.42816 70.3615 8.16757 69.8857 7.99708C69.4098 7.82659 68.9038 7.74959 68.397 7.77057C67.3269 7.73513 66.2809 8.08463 65.4601 8.75195V8.75195Z" fill="var(--fill-0, #102A43)"/>
<path id="Vector_7" d="M84.6825 6.0491L84.3229 7.91454H83.1228C82.1494 7.91043 81.2076 8.28273 80.4728 8.96215C79.7012 9.63735 79.1751 10.5778 78.9849 11.6214L77.6864 18.6965H75.8844L78.1559 6.17402H79.9579L79.6702 7.80987C80.1309 7.23348 80.7047 6.77136 81.3511 6.45604C82.0614 6.16397 82.8197 6.02695 83.5809 6.05313L84.6825 6.0491Z" fill="var(--fill-0, #102A43)"/>
<path id="Vector_8" d="M86.6304 18.6965H84.6825L87.1378 6.0491H89.0816L86.6304 18.6965Z" fill="var(--fill-0, #102A43)"/>
<path id="Vector_9" d="M93.0848 17.9496C92.1976 17.4581 91.4647 16.7424 90.9643 15.8787C90.432 14.9512 90.1622 13.9037 90.1823 12.8425C90.1906 11.7076 90.4987 10.5937 91.0772 9.60703C91.6711 8.56116 92.5299 7.67899 93.5726 7.04366C94.6559 6.37601 95.9173 6.03091 97.2008 6.05113C98.5249 6.017 99.8224 6.41472 100.885 7.18046C101.887 7.90234 102.579 8.95687 102.829 10.1423H100.813C100.559 9.43979 100.073 8.83821 99.4302 8.43086C98.7615 8.00998 97.9778 7.79349 97.1807 7.80952C96.2454 7.7917 95.3254 8.04184 94.5361 8.52855C93.7924 8.99259 93.1876 9.63811 92.7825 10.4003C92.3784 11.1547 92.1682 11.9925 92.1697 12.8425C92.1583 13.5762 92.3386 14.3007 92.6938 14.9486C93.0309 15.5655 93.541 16.0776 94.1652 16.4257C94.8107 16.7825 95.5427 16.966 96.2857 16.9572C97.1341 16.9582 97.968 16.7439 98.7045 16.3358C99.4471 15.9395 100.049 15.3347 100.43 14.6009H102.397C101.834 15.8055 100.963 16.8507 99.8655 17.6371C98.7345 18.3722 97.3925 18.7415 96.0317 18.6921C94.9992 18.6996 93.9829 18.4435 93.0848 17.9496V17.9496Z" fill="var(--fill-0, #102A43)"/>
<path id="Vector_10" d="M90.0423 2.95981C89.894 3.22044 89.6684 3.44671 89.3858 3.61814C89.094 3.77803 88.7477 3.85845 88.3965 3.84783C88.1289 3.8496 87.8654 3.79411 87.6322 3.687C87.4032 3.5791 87.2138 3.42319 87.0836 3.23538C86.9479 3.03383 86.8784 2.80703 86.882 2.57706C86.8849 2.32978 86.9656 2.08723 87.1164 1.87276C87.2691 1.64504 87.4901 1.45276 87.7588 1.31395C88.0395 1.17008 88.3652 1.09561 88.6966 1.09958C89.0338 1.09399 89.3638 1.18023 89.6344 1.3446C89.8922 1.50175 90.0706 1.73044 90.1361 1.9876C90.1783 2.142 90.191 2.30081 90.1736 2.45838C90.1617 2.63003 90.1174 2.79918 90.0423 2.95981V2.95981Z" fill="var(--fill-0, #102A43)"/>
<path id="Vector_11" d="M114.75 7.02228C115.176 7.47371 115.509 8.01256 115.728 8.60505C115.947 9.19755 116.047 9.83102 116.022 10.4659C116.018 10.9015 115.977 11.3358 115.901 11.7639L114.637 18.6961H112.779L114.067 11.6329C114.12 11.3242 114.154 11.0125 114.169 10.6994C114.187 10.2772 114.123 9.85547 113.98 9.46037C113.837 9.06528 113.618 8.70516 113.337 8.40222C113.044 8.10635 112.696 7.8764 112.315 7.72645C111.934 7.57649 111.527 7.50961 111.121 7.53001C110.188 7.51987 109.285 7.87133 108.584 8.51688C107.823 9.22516 107.321 10.1893 107.164 11.2439L105.774 18.6961H103.928L107.343 2.10795e-08H109.201L107.862 7.29669C108.353 6.80736 108.923 6.41232 109.544 6.12967C110.404 5.74252 111.351 5.62087 112.275 5.77899C113.198 5.93711 114.06 6.36839 114.758 7.02228H114.75Z" fill="var(--fill-0, #102A43)"/>
<path id="Vector_12" d="M122.296 7.843L120.905 14.829C120.876 15.0074 120.858 15.1873 120.851 15.3677C120.838 15.5756 120.873 15.7838 120.952 15.9771C121.032 16.1703 121.154 16.344 121.31 16.4855C121.677 16.7743 122.141 16.9187 122.611 16.8905H123.795L123.427 18.6886H122.375C121.435 18.7427 120.509 18.4541 119.774 17.8786C119.466 17.6036 119.223 17.2653 119.064 16.8879C118.905 16.5105 118.834 16.1034 118.855 15.6958C118.87 15.3847 118.906 15.0749 118.962 14.7683L120.329 7.83499H118.225L118.569 6.08541H120.669L121.327 2.74832H123.294L122.64 6.08541H125.924L125.58 7.83499L122.296 7.843Z" fill="var(--fill-0, #102A43)"/>
<path id="Vector_13" d="M127.903 12.7584V12.9379C127.864 13.4701 127.94 14.0045 128.125 14.5043C128.309 15.0042 128.598 15.4576 128.972 15.8338C129.346 16.21 129.795 16.5 130.29 16.6839C130.784 16.8678 131.312 16.9413 131.837 16.8994C132.613 16.9127 133.379 16.7214 134.061 16.3445C134.753 15.9305 135.352 15.3747 135.821 14.7126H137.866C137.204 15.9035 136.288 16.9295 135.184 17.7153C134.127 18.3878 132.896 18.7284 131.648 18.6944C130.624 18.7118 129.613 18.4617 128.712 17.9682C127.853 17.4978 127.144 16.7905 126.666 15.9283C126.162 15.0113 125.906 13.9754 125.925 12.9257C125.926 11.6806 126.229 10.4548 126.807 9.35602C127.387 8.22746 128.244 7.26922 129.296 6.57365C130.398 5.85063 131.688 5.477 133.001 5.50064C134.028 5.47959 135.043 5.73438 135.941 6.23909C136.765 6.70225 137.443 7.39264 137.895 8.23002C138.346 9.06665 138.579 10.006 138.571 10.9593C138.575 11.5647 138.488 12.1671 138.314 12.7462L127.903 12.7584ZM129.791 8.34825C128.997 9.04682 128.427 9.97047 128.156 11H136.586C136.593 10.5084 136.501 10.0205 136.314 9.56648C136.128 9.11246 135.852 8.70201 135.502 8.3605C135.131 8.01078 134.695 7.73917 134.219 7.5613C133.744 7.38343 133.238 7.30282 132.731 7.32425C131.661 7.28818 130.614 7.6527 129.791 8.34825V8.34825Z" fill="var(--fill-0, #102A43)"/>
</g>
</svg>
