<svg preserveAspectRatio="none" width="100%" height="100%" overflow="visible" style="display: block;" viewBox="0 0 24 24" fill="none" xmlns="http://www.w3.org/2000/svg">
<g id="zoom plus">
<path id="shape" d="M17.0082 16.3295C16.7187 16.0332 16.2439 16.0277 15.9476 16.3172C15.6513 16.6066 15.6458 17.0815 15.9353 17.3778L16.4717 16.8536L17.0082 16.3295ZM20.9635 22.5241C21.253 22.8204 21.7279 22.8259 22.0241 22.5365C22.3204 22.247 22.3259 21.7721 22.0365 21.4759L21.5 22L20.9635 22.5241ZM10.3584 18.7328V19.4828C15.3896 19.4828 19.4669 15.4006 19.4669 10.3664H18.7169H17.9669C17.9669 14.5735 14.5598 17.9828 10.3584 17.9828V18.7328ZM2 10.3664H1.25C1.25 15.4006 5.32731 19.4828 10.3584 19.4828V18.7328V17.9828C6.15708 17.9828 2.75 14.5735 2.75 10.3664H2ZM10.3584 2V1.25C5.32731 1.25 1.25 5.33223 1.25 10.3664H2H2.75C2.75 6.15931 6.15708 2.75 10.3584 2.75V2ZM18.7169 10.3664H19.4669C19.4669 5.33223 15.3896 1.25 10.3584 1.25V2V2.75C14.5598 2.75 17.9669 6.15931 17.9669 10.3664H18.7169ZM16.4717 16.8536L15.9353 17.3778L20.9635 22.5241L21.5 22L22.0365 21.4759L17.0082 16.3295L16.4717 16.8536Z" fill="var(--stroke-0, #0066CC)"/>
<path id="shape_2" d="M7 9.75C6.58579 9.75 6.25 10.0858 6.25 10.5C6.25 10.9142 6.58579 11.25 7 11.25V10.5V9.75ZM13.9489 11.25C14.3631 11.25 14.6989 10.9142 14.6989 10.5C14.6989 10.0858 14.3631 9.75 13.9489 9.75V10.5V11.25ZM11.25 7C11.25 6.58579 10.9142 6.25 10.5 6.25C10.0858 6.25 9.75 6.58579 9.75 7L10.5 7L11.25 7ZM9.75 13.9489C9.75 14.3631 10.0858 14.6989 10.5 14.6989C10.9142 14.6989 11.25 14.3631 11.25 13.9489H10.5H9.75ZM7 10.5V11.25H13.9489V10.5V9.75H7V10.5ZM10.5 7L9.75 7L9.75 13.9489H10.5H11.25L11.25 7L10.5 7Z" fill="var(--stroke-0, #0066CC)"/>
</g>
</svg>
