<svg width="16" height="16" viewBox="0 0 16 16" fill="none" xmlns="http://www.w3.org/2000/svg">
<path fill-rule="evenodd" clip-rule="evenodd" d="M1.33337 2.5C1.05723 2.5 0.833374 2.72386 0.833374 3C0.833374 3.27614 1.05723 3.5 1.33337 3.5H3.36121L4.27525 9.19353L4.28222 9.23698L4.29668 9.27854C4.39429 9.55915 4.59346 9.96937 4.89078 10.3197C5.18318 10.6642 5.63694 11.0253 6.24131 11.0253H6.24594H6.25065H6.25542H6.26026H6.26517H6.27014H6.27519H6.2803H6.28548H6.29072H6.29604H6.30142H6.30686H6.31237H6.31795H6.32359H6.3293H6.33507H6.34091H6.34681H6.35278H6.35881H6.3649H6.37106H6.37728H6.38357H6.38992H6.39633H6.4028H6.40934H6.41594H6.4226H6.42932H6.4361H6.44295H6.44985H6.45682H6.46385H6.47094H6.47808H6.48529H6.49256H6.49989H6.50727H6.51472H6.52222H6.52979H6.53741H6.54509H6.55282H6.56062H6.56847H6.57638H6.58435H6.59237H6.60045H6.60859H6.61678H6.62503H6.63334H6.6417H6.65011H6.65858H6.66711H6.67569H6.68432H6.69301H6.70175H6.71055H6.71939H6.7283H6.73725H6.74626H6.75532H6.76443H6.7736H6.78282H6.79209H6.80141H6.81078H6.8202H6.82967H6.8392H6.84877H6.85839H6.86807H6.87779H6.88756H6.89739H6.90726H6.91718H6.92715H6.93716H6.94723H6.95734H6.9675H6.97771H6.98796H6.99827H7.00862H7.01901H7.02945H7.03994H7.05047H7.06105H7.07168H7.08235H7.09306H7.10382H7.11462H7.12547H7.13636H7.1473H7.15828H7.1693H7.18037H7.19148H7.20263H7.21382H7.22506H7.23634H7.24766H7.25902H7.27043H7.28187H7.29336H7.30488H7.31645H7.32806H7.3397H7.35139H7.36312H7.37488H7.38669H7.39853H7.41041H7.42233H7.43429H7.44629H7.45832H7.4704H7.48251H7.49465H7.50684H7.51906H7.53132H7.54361H7.55594H7.5683H7.5807H7.59314H7.60561H7.61812H7.63066H7.64323H7.65584H7.66848H7.68116H7.69387H7.70661H7.71939H7.7322H7.74504H7.75792H7.77083H7.78376H7.79674H7.80974H7.82277H7.83584H7.84893H7.86206H7.87521H7.8884H7.90162H7.91486H7.92814H7.94144H7.95478H7.96814H7.98153H7.99495H8.0084H8.02188H8.03538H8.04891H8.06247H8.07606H8.08967H8.10331H8.11698H8.13067H8.14438H8.15813H8.1719H8.18569H8.19951H8.21335H8.22722H8.24112H8.25503H8.26897H8.28294H8.29693H8.31094H8.32497H8.33903H8.35311H8.36721H8.38133H8.39548H8.40965H8.42384H8.43805H8.45228H8.46653H8.4808H8.4951H8.50941H8.52374H8.5381H8.55247H8.56686H8.58127H8.5957H8.61015H8.62461H8.6391H8.6536H8.66812H8.68266H8.69721H8.71178H8.72637H8.74098H8.7556H8.77023H8.78489H8.79955H8.81424H8.82894H8.84365H8.85838H8.87313H8.88788H8.90265H8.91744H8.93224H8.94705H8.96188H8.97672H8.99157H9.00643H9.02131H9.0362H9.0511H9.06601H9.08093H9.09587H9.11081H9.12577H9.14073H9.15571H9.1707H9.18569H9.2007H9.21571H9.23074H9.24577H9.26081H9.27586H9.29092H9.30599H9.32107H9.33615H9.35124H9.36633H9.38144H9.39655H9.41166H9.42679H9.44192H9.45705H9.47219H9.48734H9.50249H9.51765H9.53281H9.54797H9.56314H9.57831H9.59349H9.60867H9.62385H9.63904H9.65423H9.66942H9.68462H9.69982H9.71502H9.73022H9.74542H9.76062H9.77583H9.79103H9.80624H9.82145H9.83665H9.85186H9.86707H9.88227H9.89748H9.91268H9.92789H9.94309H9.95829H9.97349H9.98868H10.0039H10.0191H10.0343H10.0494H10.0646H10.0798H10.095H10.1102H10.1253H10.1405H10.1556H10.1708H10.186H10.2011H10.2162H10.2314H10.2465H10.2616H10.2767H10.2918H10.3069H10.322H10.3371H10.3522H10.3673H10.3823H10.3974H10.4124H10.4275H10.4425H10.4575H10.4726H10.4876H10.5026H10.5175H10.5325H10.5475H10.5624H10.5774H10.5923H10.6072H10.6221H10.637H10.6519H10.6668H10.6816H10.6965H10.7113H10.7262H10.741H10.7558H10.7705H10.7853H10.8001H10.8148H10.8295H10.8442H10.8589H10.8736H10.8883H10.9029H10.9176H10.9322H10.9468H10.9614H10.9759H10.9905H11.005H11.0195H11.034H11.0485H11.063H11.0774H11.0918H11.1062H11.1206H11.135H11.1493H11.1637H11.178H11.1923H11.2065H11.2208H11.235H11.2492H11.2634H11.2775H11.2917H11.3058H11.3199H11.334H11.348H11.3621H11.3761H11.39H11.404H11.4179H11.4318H11.4457H11.4596H11.4734H11.4872H11.501H11.5148H11.5285H11.5422H11.5559H11.5696H11.5832H11.5968H11.6104H11.624H11.6375H11.651H11.6644H11.6779H11.6913H11.7047H11.718H11.7314H11.7447H11.7579H11.7712H11.7844H11.7976H11.8107H11.8238H11.8369H11.85H11.863H11.876H11.889H11.9019H11.9148H11.9276H11.9405H11.9533H11.9661H11.9788H11.9915H12.0042H12.0168H12.0294H12.042H12.0545H12.067H12.0794H12.0919H12.1043H12.1166H12.1289H12.1412H12.1535H12.1657H12.1779H12.19H12.2021H12.2142H12.2262H12.2382H12.2501H12.262H12.2739H12.2857H12.2975H12.3093H12.321H12.3327H12.3443H12.3559H12.3675H12.379H12.3905H12.4019H12.4133H12.4246H12.4359H12.4472H12.4584H12.4696H12.4808H12.4919H12.5029H12.5139H12.5249H12.5358H12.5467H12.5575H12.5683H12.5791H12.5898H12.6004H12.611H12.6216C12.8978 11.0253 13.1216 10.8014 13.1216 10.5253C13.1216 10.2491 12.8978 10.0253 12.6216 10.0253H12.611H12.6004H12.5898H12.5791H12.5683H12.5575H12.5467H12.5358H12.5249H12.5139H12.5029H12.4919H12.4808H12.4696H12.4584H12.4472H12.4359H12.4246H12.4133H12.4019H12.3905H12.379H12.3675H12.3559H12.3443H12.3327H12.321H12.3093H12.2975H12.2857H12.2739H12.262H12.2501H12.2382H12.2262H12.2142H12.2021H12.19H12.1779H12.1657H12.1535H12.1412H12.1289H12.1166H12.1043H12.0919H12.0794H12.067H12.0545H12.042H12.0294H12.0168H12.0042H11.9915H11.9788H11.9661H11.9533H11.9405H11.9276H11.9148H11.9019H11.889H11.876H11.863H11.85H11.8369H11.8238H11.8107H11.7976H11.7844H11.7712H11.7579H11.7447H11.7314H11.718H11.7047H11.6913H11.6779H11.6644H11.651H11.6375H11.624H11.6104H11.5968H11.5832H11.5696H11.5559H11.5422H11.5285H11.5148H11.501H11.4872H11.4734H11.4596H11.4457H11.4318H11.4179H11.404H11.39H11.3761H11.3621H11.348H11.334H11.3199H11.3058H11.2917H11.2775H11.2634H11.2492H11.235H11.2208H11.2065H11.1923H11.178H11.1637H11.1493H11.135H11.1206H11.1062H11.0918H11.0774H11.063H11.0485H11.034H11.0195H11.005H10.9905H10.9759H10.9614H10.9468H10.9322H10.9176H10.9029H10.8883H10.8736H10.8589H10.8442H10.8295H10.8148H10.8001H10.7853H10.7705H10.7558H10.741H10.7262H10.7113H10.6965H10.6816H10.6668H10.6519H10.637H10.6221H10.6072H10.5923H10.5774H10.5624H10.5475H10.5325H10.5175H10.5026H10.4876H10.4726H10.4575H10.4425H10.4275H10.4124H10.3974H10.3823H10.3673H10.3522H10.3371H10.322H10.3069H10.2918H10.2767H10.2616H10.2465H10.2314H10.2162H10.2011H10.186H10.1708H10.1556H10.1405H10.1253H10.1102H10.095H10.0798H10.0646H10.0494H10.0343H10.0191H10.0039H9.98868H9.97349H9.95829H9.94309H9.92789H9.91268H9.89748H9.88227H9.86707H9.85186H9.83665H9.82145H9.80624H9.79103H9.77583H9.76062H9.74542H9.73022H9.71502H9.69982H9.68462H9.66942H9.65423H9.63904H9.62385H9.60867H9.59349H9.57831H9.56314H9.54797H9.53281H9.51765H9.50249H9.48734H9.47219H9.45705H9.44192H9.42679H9.41166H9.39655H9.38144H9.36633H9.35124H9.33615H9.32107H9.30599H9.29092H9.27586H9.26081H9.24577H9.23074H9.21571H9.2007H9.18569H9.1707H9.15571H9.14073H9.12577H9.11081H9.09587H9.08093H9.06601H9.0511H9.0362H9.02131H9.00643H8.99157H8.97672H8.96188H8.94705H8.93224H8.91744H8.90265H8.88788H8.87313H8.85838H8.84365H8.82894H8.81424H8.79955H8.78489H8.77023H8.7556H8.74098H8.72637H8.71178H8.69721H8.68266H8.66812H8.6536H8.6391H8.62461H8.61015H8.5957H8.58127H8.56686H8.55247H8.5381H8.52374H8.50941H8.4951H8.4808H8.46653H8.45228H8.43805H8.42384H8.40965H8.39548H8.38133H8.36721H8.35311H8.33903H8.32497H8.31094H8.29693H8.28294H8.26897H8.25503H8.24112H8.22722H8.21335H8.19951H8.18569H8.1719H8.15813H8.14438H8.13067H8.11698H8.10331H8.08967H8.07606H8.06247H8.04891H8.03538H8.02188H8.0084H7.99495H7.98153H7.96814H7.95478H7.94144H7.92814H7.91486H7.90162H7.8884H7.87521H7.86206H7.84893H7.83584H7.82277H7.80974H7.79674H7.78376H7.77083H7.75792H7.74504H7.7322H7.71939H7.70661H7.69387H7.68116H7.66848H7.65584H7.64323H7.63066H7.61812H7.60561H7.59314H7.5807H7.5683H7.55594H7.54361H7.53132H7.51906H7.50684H7.49465H7.48251H7.4704H7.45832H7.44629H7.43429H7.42233H7.41041H7.39853H7.38669H7.37488H7.36312H7.35139H7.3397H7.32806H7.31645H7.30488H7.29336H7.28187H7.27043H7.25902H7.24766H7.23634H7.22506H7.21382H7.20263H7.19148H7.18037H7.1693H7.15828H7.1473H7.13636H7.12547H7.11462H7.10382H7.09306H7.08235H7.07168H7.06105H7.05047H7.03994H7.02945H7.01901H7.00862H6.99827H6.98796H6.97771H6.9675H6.95734H6.94723H6.93716H6.92715H6.91718H6.90726H6.89739H6.88756H6.87779H6.86807H6.85839H6.84877H6.8392H6.82967H6.8202H6.81078H6.80141H6.79209H6.78282H6.7736H6.76443H6.75532H6.74626H6.73725H6.7283H6.71939H6.71055H6.70175H6.69301H6.68432H6.67569H6.66711H6.65858H6.65011H6.6417H6.63334H6.62503H6.61678H6.60859H6.60045H6.59237H6.58435H6.57638H6.56847H6.56062H6.55282H6.54509H6.53741H6.52979H6.52222H6.51472H6.50727H6.49989H6.49256H6.48529H6.47808H6.47094H6.46385H6.45682H6.44985H6.44295H6.4361H6.42932H6.4226H6.41594H6.40934H6.4028H6.39633H6.38992H6.38357H6.37728H6.37106H6.3649H6.35881H6.35278H6.34681H6.34091H6.33507H6.3293H6.32359H6.31795H6.31237H6.30686H6.30142H6.29604H6.29072H6.28548H6.2803H6.27519H6.27014H6.26517H6.26026H6.25542H6.25065H6.24594H6.24131C6.0604 10.0253 5.85977 9.916 5.6532 9.6726C5.51179 9.50598 5.39854 9.311 5.32074 9.14394H5.33442H5.35095H5.36752H5.38411H5.40075H5.41741H5.43411H5.45084H5.4676H5.48439H5.50121H5.51807H5.53495H5.55187H5.56881H5.58579H5.60279H5.61982H5.63689H5.65398H5.67109H5.68824H5.70541H5.72261H5.73984H5.75709H5.77437H5.79168H5.80901H5.82637H5.84375H5.86116H5.87859H5.89605H5.91353H5.93103H5.94856H5.96611H5.98368H6.00128H6.0189H6.03653H6.0542H6.07188H6.08958H6.1073H6.12505H6.14281H6.1606H6.1784H6.19622H6.21406H6.23192H6.2498H6.2677H6.28561H6.30354H6.32149H6.33946H6.35744H6.37544H6.39345H6.41148H6.42952H6.44758H6.46566H6.48375H6.50185H6.51997H6.53809H6.55624H6.57439H6.59256H6.61074H6.62894H6.64714H6.66536H6.68358H6.70182H6.72007H6.73833H6.7566H6.77488H6.79316H6.81146H6.82976H6.84808H6.8664H6.88473H6.90307H6.92141H6.93976H6.95812H6.97648H6.99485H7.01323H7.03161H7.05H7.06839H7.08679H7.10519H7.12359H7.142H7.16041H7.17882H7.19724H7.21566H7.23408H7.2525H7.27093H7.28936H7.30778H7.32621H7.34464H7.36307H7.38149H7.39992H7.41835H7.43677H7.4552H7.47362H7.49204H7.51046H7.52887H7.54729H7.5657H7.5841H7.6025H7.6209H7.63929H7.65768H7.67607H7.69445H7.71282H7.73118H7.74955H7.7679H7.78625H7.80459H7.82292H7.84125H7.85956H7.87787H7.89617H7.91446H7.93274H7.95102H7.96928H7.98753H8.00578H8.02401H8.04223H8.06044H8.07864H8.09682H8.115H8.13316H8.15131H8.16944H8.18756H8.20567H8.22377H8.24185H8.25991H8.27796H8.296H8.31402H8.33203H8.35001H8.36799H8.38594H8.40388H8.4218H8.43971H8.45759H8.47546H8.49331H8.51114H8.52895H8.54674H8.56452H8.58227H8.6H8.61771H8.63541H8.65308H8.67072H8.68835H8.70596H8.72354H8.7411H8.75864H8.77615H8.79364H8.81111H8.82855H8.84597H8.86336H8.88073H8.89807H8.91539H8.93268H8.94995H8.96719H8.9844H9.00158H9.01874H9.03587H9.05297H9.07005H9.08709H9.10411H9.12109H9.13805H9.15498H9.17188H9.18874H9.20558H9.22239H9.23916H9.2559H9.27262H9.28929H9.30594H9.32255H9.33913H9.35568H9.3722H9.38868H9.40512H9.42153H9.43791H9.45425H9.47055H9.48682H9.50306H9.51925H9.53541H9.55154H9.56763H9.58367H9.59969H9.61566H9.63159H9.64749H9.66335H9.67916H9.69494H9.71068H9.72638H9.74203H9.75765H9.77322H9.78876H9.80425H9.8197H9.83511H9.85047H9.8658H9.88108H9.89631H9.9115H9.92665H9.94175H9.95681H9.97183H9.9868H10.0017H10.0166H10.0314H10.0462H10.0609H10.0756H10.0903H10.1049H10.1194H10.1339H10.1484H10.1628H10.1771H10.1914H10.2057H10.2199H10.234H10.2481H10.2622H10.2762H10.2901H10.304H10.3179H10.3317H10.3454H10.3591H10.3727H10.3863H10.3998H10.4133H10.4267H10.4401H10.4534H10.4666H10.4798H10.493H10.5061H10.5191H10.5321H10.545H10.5578H10.5706H10.5834H10.596H10.6087H10.6212H10.6337H10.6462H10.6586H10.6709H10.6831H10.6953H10.7075H10.7196H10.7316H10.7435H10.7554H10.7673H10.779H10.7907H10.8024H10.8139H10.8255H10.8369H10.8483H10.8596H10.8709H10.8821H10.8932H10.9042H10.9152H10.9262H10.937H10.9478H10.9585H10.9692H10.9798H10.9903H11.0007H11.0111H11.0214H11.0316H11.0418H11.0519H11.0619H11.0719H11.0818H11.0916H11.1013H11.111H11.1206H11.1301H11.1396H11.149H11.1583H11.1675H11.1767H11.1857H11.1947H11.2037H11.2125H11.2213H11.23H11.2387H11.2472H11.2557H11.2641H11.2724H11.2806H11.2888H11.2969H11.3049H11.3128H11.3207H11.3285H11.3361H11.3438H11.3513H11.3587H11.3661H11.3734H11.3806H11.3877H11.3947H11.4017H11.4086H11.4154H11.4221H11.4287H11.4352H11.4417H11.4481H11.4544H11.4606H11.4667H11.4727H11.4786H11.4845H11.4903H11.4959H11.5015H11.5071H11.5125H11.5178H11.523H11.5282H11.5333H11.5382H11.5431H11.5479H11.5526H11.5572H11.5618H11.5662H11.5705H11.5748H11.5789H11.583H11.587H11.5909H11.5946H11.5983H11.6019H11.6054H11.6088H11.6122H11.6154H11.6185H11.6215H11.6245H11.6273H11.63H11.6327H11.6352H11.6377H11.64L11.6559 9.14395C11.8522 9.14408 12.1896 9.1443 12.547 8.98124C12.9264 8.80807 13.2703 8.48152 13.5557 7.93457L13.5726 7.90212L13.5846 7.86755C13.635 7.72282 13.7005 7.5849 13.7978 7.38L13.7979 7.37996L13.7979 7.37995L13.7979 7.37991L13.7981 7.37956C13.8377 7.29602 13.8827 7.20136 13.9341 7.09058C14.1035 6.72526 14.3146 6.23945 14.5662 5.51591C14.6694 5.21939 14.7136 4.92331 14.6379 4.65018C14.5551 4.35158 14.353 4.16286 14.1358 4.0574C13.937 3.96085 13.7222 3.93081 13.5576 3.91895C13.4222 3.9092 13.2816 3.91006 13.177 3.91071L13.1124 3.91099H4.43999L4.28102 2.92074L4.21347 2.5H3.78734H1.33337ZM4.60053 4.91099L5.11955 8.14394H5.12267H5.13874H5.15485H5.171H5.18718H5.2034H5.21965H5.23594H5.25226H5.26863H5.28502H5.30145H5.31792H5.33442H5.35095H5.36752H5.38411H5.40075H5.41741H5.43411H5.45084H5.4676H5.48439H5.50121H5.51807H5.53495H5.55187H5.56881H5.58579H5.60279H5.61982H5.63689H5.65398H5.67109H5.68824H5.70541H5.72261H5.73984H5.75709H5.77437H5.79168H5.80901H5.82637H5.84375H5.86116H5.87859H5.89605H5.91353H5.93103H5.94856H5.96611H5.98368H6.00128H6.0189H6.03653H6.0542H6.07188H6.08958H6.1073H6.12505H6.14281H6.1606H6.1784H6.19622H6.21406H6.23192H6.2498H6.2677H6.28561H6.30354H6.32149H6.33946H6.35744H6.37544H6.39345H6.41148H6.42952H6.44758H6.46566H6.48375H6.50185H6.51997H6.53809H6.55624H6.57439H6.59256H6.61074H6.62894H6.64714H6.66536H6.68358H6.70182H6.72007H6.73833H6.7566H6.77488H6.79316H6.81146H6.82976H6.84808H6.8664H6.88473H6.90307H6.92141H6.93976H6.95812H6.97648H6.99485H7.01323H7.03161H7.05H7.06839H7.08679H7.10519H7.12359H7.142H7.16041H7.17882H7.19724H7.21566H7.23408H7.2525H7.27093H7.28936H7.30778H7.32621H7.34464H7.36307H7.38149H7.39992H7.41835H7.43677H7.4552H7.47362H7.49204H7.51046H7.52887H7.54729H7.5657H7.5841H7.6025H7.6209H7.63929H7.65768H7.67607H7.69445H7.71282H7.73118H7.74955H7.7679H7.78625H7.80459H7.82292H7.84125H7.85956H7.87787H7.89617H7.91446H7.93274H7.95102H7.96928H7.98753H8.00578H8.02401H8.04223H8.06044H8.07864H8.09682H8.115H8.13316H8.15131H8.16944H8.18756H8.20567H8.22377H8.24185H8.25991H8.27796H8.296H8.31402H8.33203H8.35001H8.36799H8.38594H8.40388H8.4218H8.43971H8.45759H8.47546H8.49331H8.51114H8.52895H8.54674H8.56452H8.58227H8.6H8.61771H8.63541H8.65308H8.67072H8.68835H8.70596H8.72354H8.7411H8.75864H8.77615H8.79364H8.81111H8.82855H8.84597H8.86336H8.88073H8.89807H8.91539H8.93268H8.94995H8.96719H8.9844H9.00158H9.01874H9.03587H9.05297H9.07005H9.08709H9.10411H9.12109H9.13805H9.15498H9.17188H9.18874H9.20558H9.22239H9.23916H9.2559H9.27262H9.28929H9.30594H9.32255H9.33913H9.35568H9.3722H9.38868H9.40512H9.42153H9.43791H9.45425H9.47055H9.48682H9.50306H9.51925H9.53541H9.55154H9.56763H9.58367H9.59969H9.61566H9.63159H9.64749H9.66335H9.67916H9.69494H9.71068H9.72638H9.74203H9.75765H9.77322H9.78876H9.80425H9.8197H9.83511H9.85047H9.8658H9.88108H9.89631H9.9115H9.92665H9.94175H9.95681H9.97183H9.9868H10.0017H10.0166H10.0314H10.0462H10.0609H10.0756H10.0903H10.1049H10.1194H10.1339H10.1484H10.1628H10.1771H10.1914H10.2057H10.2199H10.234H10.2481H10.2622H10.2762H10.2901H10.304H10.3179H10.3317H10.3454H10.3591H10.3727H10.3863H10.3998H10.4133H10.4267H10.4401H10.4534H10.4666H10.4798H10.493H10.5061H10.5191H10.5321H10.545H10.5578H10.5706H10.5834H10.596H10.6087H10.6212H10.6337H10.6462H10.6586H10.6709H10.6831H10.6953H10.7075H10.7196H10.7316H10.7435H10.7554H10.7673H10.779H10.7907H10.8024H10.8139H10.8255H10.8369H10.8483H10.8596H10.8709H10.8821H10.8932H10.9042H10.9152H10.9262H10.937H10.9478H10.9585H10.9692H10.9798H10.9903H11.0007H11.0111H11.0214H11.0316H11.0418H11.0519H11.0619H11.0719H11.0818H11.0916H11.1013H11.111H11.1206H11.1301H11.1396H11.149H11.1583H11.1675H11.1767H11.1857H11.1947H11.2037H11.2125H11.2213H11.23H11.2387H11.2472H11.2557H11.2641H11.2724H11.2806H11.2888H11.2969H11.3049H11.3128H11.3207H11.3285H11.3361H11.3438H11.3513H11.3587H11.3661H11.3734H11.3806H11.3877H11.3947H11.4017H11.4086H11.4154H11.4221H11.4287H11.4352H11.4417H11.4481H11.4544H11.4606H11.4667H11.4727H11.4786H11.4845H11.4903H11.4959H11.5015H11.5071H11.5125H11.5178H11.523H11.5282H11.5333H11.5382H11.5431H11.5479H11.5526H11.5572H11.5618H11.5662H11.5705H11.5748H11.5789H11.583H11.587H11.5909H11.5946H11.5983H11.6019H11.6054H11.6088H11.6122H11.6154H11.6185H11.6215H11.6245H11.6273H11.63H11.6327H11.6352H11.6377H11.64C11.839 8.14394 11.9836 8.13911 12.1318 8.07149C12.2643 8.01105 12.4538 7.87293 12.6536 7.50138C12.7221 7.31287 12.8153 7.117 12.9167 6.90361L12.9168 6.90334L12.917 6.90309L12.917 6.90304C12.9528 6.82764 12.9897 6.75006 13.0269 6.66984C13.1847 6.32967 13.3826 5.87483 13.6217 5.18738C13.6658 5.06057 13.6749 4.98538 13.6758 4.9477C13.6405 4.93584 13.5801 4.92317 13.4857 4.91637C13.3931 4.9097 13.3025 4.91016 13.2008 4.91069L13.2006 4.91069C13.1722 4.91083 13.1429 4.91099 13.1124 4.91099H4.60053ZM12.6216 12.4066C12.6216 12.9261 12.1821 13.3472 11.64 13.3472C11.0979 13.3472 10.6584 12.9261 10.6584 12.4066C10.6584 11.8871 11.0979 11.4659 11.64 11.4659C12.1821 11.4659 12.6216 11.8871 12.6216 12.4066ZM5.75051 13.3472C6.29262 13.3472 6.73209 12.9261 6.73209 12.4066C6.73209 11.8871 6.29262 11.4659 5.75051 11.4659C5.20839 11.4659 4.76892 11.8871 4.76892 12.4066C4.76892 12.9261 5.20839 13.3472 5.75051 13.3472Z" fill="#3C5C7B"/>
</svg>
